<?xml version="1.0" encoding="utf-8"?>
<!-- Generator: Adobe Illustrator 25.0.1, SVG Export Plug-In . SVG Version: 6.00 Build 0)  -->
<svg version="1.1" id="Layer_1" xmlns="http://www.w3.org/2000/svg" xmlns:xlink="http://www.w3.org/1999/xlink" x="0px" y="0px"
	 viewBox="0 0 53 55.7" style="enable-background:new 0 0 53 55.7;" xml:space="preserve">
<style type="text/css">
	.st0{fill:#FEFEFE;}
	.st1{fill:#CF2E2A;}
	.st2{fill:#F1C2C1;}
</style>
<g>
	<path class="st0" d="M26.8,3.5C13.5,3.5,2.3,14.7,2.3,28s11.1,24.5,24.4,24.5S51.3,41.3,51.3,28C51.3,14.8,40.1,3.5,26.8,3.5z
		 M41.7,32.7c-3.1,3.6-7,5.8-10.9,5.7c5.4-3.5,8.2-8.2,7.8-14.6c-0.2-3.1-1.1-6.1-3.7-8.1c-2.9-2.2-5.5-1.7-8.1,1.6
		c-0.7,0.9-1.1,1.2-2,0.2c-1.6-2-3.8-2.9-6.2-1.8c-2.6,1.2-3.9,3.5-4.3,6.3c-0.8,6,1.7,10.8,5.2,15.3c4.1,5.4,9.3,6.9,15.6,5
		c0.2,0.2,0.4,0.4,0.6,0.6C24.9,48.6,13.3,44,10.1,32.6c-2.6-9.3,3.7-19.3,13.4-21.3c9.5-1.9,19.1,5,20.5,14.5
		C44.3,28.6,43.5,30.7,41.7,32.7z M25.4,35.9c-0.9,0.2-1.4-0.3-1.9-0.8c-3.8-3.8-5-8.3-4.2-13.5c0.1-0.7,0.3-1.3,1-1.6
		c0.8-0.3,1.2,0.3,1.7,0.8c1.4,1.2,2.2,2.9,2.8,4.7c0.5,1.4,1,2.8,1.6,4.5c1.4-3.3,1.9-6.4,3.4-9.1c0.4-0.8,1-1.8,1.9-1.8
		c1.2,0,1.5,1.2,1.9,2.1C36.1,27.3,32,34.8,25.4,35.9z"/>
	<path class="st1" d="M26.8,3.5C13.5,3.5,2.3,14.7,2.3,28s11.1,24.5,24.4,24.5S51.3,41.3,51.3,28C51.3,14.8,40.1,3.5,26.8,3.5z
		 M41.7,32.7c-3.1,3.6-7,5.8-10.9,5.7c5.4-3.5,8.2-8.2,7.8-14.6c-0.2-3.1-1.1-6.1-3.7-8.1c-2.9-2.2-5.5-1.7-8.1,1.6
		c-0.7,0.9-1.1,1.2-2,0.2c-1.6-2-3.8-2.9-6.2-1.8c-2.6,1.2-3.9,3.5-4.3,6.3c-0.8,6,1.7,10.8,5.2,15.3c4.1,5.4,9.3,6.9,15.6,5
		c0.2,0.2,0.4,0.4,0.6,0.6C24.9,48.6,13.3,44,10.1,32.6c-2.6-9.3,3.7-19.3,13.4-21.3c9.5-1.9,19.1,5,20.5,14.5
		C44.3,28.6,43.5,30.7,41.7,32.7z M25.4,35.9c-0.9,0.2-1.4-0.3-1.9-0.8c-3.8-3.8-5-8.3-4.2-13.5c0.1-0.7,0.3-1.3,1-1.6
		c0.8-0.3,1.2,0.3,1.7,0.8c1.4,1.2,2.2,2.9,2.8,4.7c0.5,1.4,1,2.8,1.6,4.5c1.4-3.3,1.9-6.4,3.4-9.1c0.4-0.8,1-1.8,1.9-1.8
		c1.2,0,1.5,1.2,1.9,2.1C36.1,27.3,32,34.8,25.4,35.9z"/>
	<path class="st0" d="M35.8,42.9c-0.2-0.2-0.4-0.4-0.6-0.6C35.7,42.2,35.8,42.5,35.8,42.9z"/>
	<path class="st2" d="M38,40.9c-0.4,1.1-1.2,1.7-2.2,2c-0.2-0.2-0.4-0.4-0.6-0.6C36.1,41.9,37,41.4,38,40.9z"/>
</g>
</svg>
