<?xml version="1.0" encoding="utf-8"?>
<!-- Generator: Adobe Illustrator 24.3.0, SVG Export Plug-In . SVG Version: 6.00 Build 0)  -->
<svg version="1.1" id="Layer_1" xmlns="http://www.w3.org/2000/svg" xmlns:xlink="http://www.w3.org/1999/xlink" x="0px" y="0px"
	 viewBox="0 0 471 209" style="enable-background:new 0 0 471 209;" xml:space="preserve">
<style type="text/css">
	.st0{fill:#D22D26;}
	.st1{fill:#FEFEFE;}
	.st2{fill:#FEFDFD;}
	.st3{fill:#FEFEFD;}
	.st4{fill:#FEFCFC;}
	.st5{fill:#FDFBFB;}
	.st6{fill:#ECAAA7;}
	.st7{fill:#D32F28;}
	.st8{fill:#D22E27;}
	.st9{fill:#D33029;}
	.st10{fill:#D4352F;}
	.st11{fill:#D4332D;}
	.st12{fill:#D53832;}
	.st13{fill:#D53A33;}
</style>
<g>
	<path class="st0" d="M471,209c-156.2,0-312.4,0-468.7,0c-1.9,0-2.3-0.4-2.3-2.3C0.1,138.6,0.1,70.4,0,2.3C0,0.4,0.4,0,2.3,0
		c155.5,0.1,310.9,0.1,466.4,0c1.9,0,2.3,0.4,2.3,2.3C470.9,71.2,471,140.1,471,209z"/>
	<path class="st1" d="M169.4,156.5c0,9.5,0,18.4,0,27.4c0,1.1-0.4,1.6-1.4,1.5c-0.5,0-1,0-1.5,0c-46.1,0-92.1,0-138.2,0
		c-2.2,0-2.9-0.5-2.9-2.8c0.1-54,0.1-107.9,0-161.9c0-2.3,0.6-2.7,2.8-2.7c46.2,0.1,92.5,0.1,138.7,0c2.1,0,2.8,0.4,2.7,2.7
		c-0.1,12.9-0.1,25.8-0.1,38.7c0,0.7,0,1.5,0,2.1c-0.6,0.3-0.7-0.1-0.9-0.3c-11.3-14-26.2-21.5-43.7-24.2c-9.7-1.5-19.5-1.4-29,1.1
		c-12.6,3.3-22.4,10.6-30.4,20.7c-20.4,25.7-20.6,61.1-0.3,86.3c12.2,15.1,27.4,25.1,47.1,27.3c20,2.2,38.1-2.8,54.6-14.2
		C167.6,157.8,168.2,157.3,169.4,156.5z"/>
	<path class="st1" d="M124.6,134.6c23.3-11.6,29.1-38.9,18.8-57.6c-3.4-6.3-8.3-10.9-16.2-10.5c-3.9,0.2-7.2,2-9.9,4.7
		c-2.2,2.1-4,4.5-5.5,7.1c-1.8-1.7-3.4-3.5-5.2-5.1c-8.7-7.6-19.7-5-24.2,5.7c-3.4,8.1-3,16.5-1.1,24.8
		c3.5,15.1,11.9,27.3,22.9,37.9c4.3,4.1,9.9,5.7,15.8,6c16.5,0.8,30-5.9,41.9-16.7c2.6-2.4,5-5.1,7.6-8.5c0,3.9,0,7.3,0,10.6
		c0,8,0,8-6.3,13c-15.1,11.8-32.1,16.8-51.2,14.2c-7.4-1-14.4-3.5-20.6-7.8c-15-10.2-25.4-23.7-28.1-42.1
		c-3.4-23.3,9.8-49.6,31.2-58.4c5.9-2.4,12.1-3,18.4-3c11.7,0,22.8,2.6,32.8,8.8c5.4,3.3,10.1,7.3,13.8,12.5
		c8.9,12.3,10.5,25.4,3.4,39c-7.5,14.3-19.3,23.2-35.4,26.1C126.5,135.2,125.4,135.8,124.6,134.6z"/>
	<path class="st1" d="M113.5,110.5c1.8-6,3.4-11.2,5-16.4c1.2-4.1,2.8-8,5.1-11.6c3.3-5.2,6.4-5,9.2,0.4c6.2,12.3,2.8,27.9-8.1,36.5
		c-4.6,3.6-9.8,6-15.4,7.4c-0.8,0.2-1.6,0.4-2.3-0.4c-8.6-10.5-15.1-21.9-14.5-36.1c0.1-2.5,0.5-5,1.8-7.2c1.3-2.1,2.2-2.3,4.2-0.8
		c1.5,1.2,2.7,2.7,3.8,4.3c4,5.9,6.1,12.7,9.1,19.1C112.1,107.1,112.6,108.5,113.5,110.5z"/>
	<path class="st1" d="M276.1,118.9c3.2,1.3,3.7,3.8,3.8,6.6c0.1,2.1-0.2,4.3,1,6.3c0.5,0.8,0,1.2-0.8,1.2c-2.1,0-4.2,0-6.2,0
		c-1,0-1.2-0.6-1.4-1.4c-0.5-1.9-0.4-3.8-0.5-5.7c-0.2-2.6-1.3-3.7-3.9-3.9c-6-0.5-6-0.5-6,5.6c0,5.5,0,5.4-5.6,5.5
		c-1.6,0-2.3-0.2-2.3-2.1c0.1-8.5,0.1-17,0-25.5c0-1.3,0.1-2.2,1.8-2.1c5.5,0.1,11,0,16.5,0.2c6.9,0.3,10.4,6,7.5,11.7
		C279.2,116.9,277.9,117.8,276.1,118.9z"/>
	<path class="st1" d="M267.1,75c3.1,1.3,3.7,3.6,3.8,6.3c0.1,2.2-0.2,4.5,1,6.6c0.5,0.8,0.1,1.2-0.8,1.2c-2.1,0-4.2,0-6.2,0
		c-1,0-1.2-0.5-1.4-1.4c-0.5-1.9-0.4-3.8-0.5-5.7c-0.1-2.4-1.3-3.6-3.6-3.9c-6.1-0.8-6.2-0.7-6.2,5.3c0,5.8,0,5.8-5.9,5.7
		c-1.8,0-2-0.7-2-2.2c0.1-8.5,0.1-17,0-25.4c0-1.6,0.5-2.1,2.1-2.1c5.5,0.2,11-0.3,16.5,0.3c3.8,0.4,7,1.6,7.9,5.9
		C272.5,69.7,271.1,72.8,267.1,75z"/>
	<path class="st1" d="M266.3,33.7c2.9,1.2,3.3,3.7,3.5,6.5c0.1,2.1-0.2,4.3,1,6.3c0.5,0.8,0,1.2-0.9,1.2c-2.1,0-4.2,0-6.2,0
		c-1,0-1.2-0.6-1.4-1.4c-0.5-1.7-0.3-3.5-0.4-5.2c-0.2-3.1-1.1-4.1-4.2-4.4c-5.7-0.6-5.7-0.6-5.7,5.1c0,0.1,0,0.2,0,0.2
		c0,6.3,0,6.2-6.4,5.7c-1.2-0.1-1.6-0.5-1.6-1.6c0-8.8,0-17.6,0-26.4c0-1.4,0.5-1.7,1.7-1.7c5.7,0.2,11.5-0.3,17.2,0.4
		c4.2,0.5,6.7,2.2,7.5,5.4c1,4-0.1,6.7-3.8,9.3C266.6,33.3,266.5,33.4,266.3,33.7z"/>
	<path class="st1" d="M410.1,118.2c0,9.6-5.9,15.5-15.8,15.6c-9.6,0.1-15.8-5.8-15.8-15.3c-0.1-9.8,5.8-15.7,15.6-15.8
		C403.9,102.6,410.1,108.6,410.1,118.2z"/>
	<path class="st1" d="M360.6,133.8c-9.8,0-15.7-5.9-15.7-15.7c0-9.5,6.1-15.5,15.8-15.4c9.8,0.1,15.9,6,15.9,15.6
		C376.6,127.9,370.5,133.8,360.6,133.8z"/>
	<path class="st1" d="M390.2,89.7c-9.7,0-15.7-5.8-15.7-15.4c0-9.8,5.9-15.7,15.7-15.7c9.8,0,15.9,6,15.9,15.5
		C406.1,83.9,400.1,89.7,390.2,89.7z"/>
	<path class="st1" d="M219.4,118.2c0-9.7,5.8-15.4,15.6-15.5c9.8-0.1,16.1,6.1,16,15.7c0,9.5-6.3,15.5-16.1,15.4
		C225.1,133.6,219.3,127.9,219.4,118.2z"/>
	<path class="st1" d="M307.4,129.6c-7.3,5.8-16.2,5.3-21.2-1.3c-4-5.4-4.2-11.6-1.5-17.5c2.5-5.6,7.4-8.1,13.5-8.3
		c5.8-0.2,10.9,1.2,13.8,7c1.3,2.8,1.2,3-1.9,3c-1,0-2-0.1-3,0c-1.2,0.1-1.9-0.3-2.6-1.3c-2.7-3.6-8.6-3.5-11.2,0.2
		c-2.8,3.8-2.8,9.5-0.2,13.4c2.8,4,9.3,4.1,12,0c0.3-0.5,0.8-1.3,0.7-1.8c-0.2-0.8-1.1-0.4-1.7-0.4c-0.7-0.1-1.3-0.1-2,0
		c-2.6,0.5-3.2-0.6-3.1-3.1c0.1-2,0.5-2.7,2.6-2.6c3.3,0.2,6.7,0.1,10,0c1.2,0,1.6,0.3,1.6,1.5c-0.1,4.3,0,8.7,0,13
		c0,0.8,0.1,1.9-1.2,1.6c-1.3-0.4-3.2,1.3-3.9-1.2C307.7,131.1,307.6,130.4,307.4,129.6z"/>
	<path class="st1" d="M371,74.3c0,4.2-0.1,8.5,0,12.7c0,1.5-0.2,2.2-2,2.2c-6.1,0-6.1,0.1-6.1-6c0-2.1,0.9-4.8-0.4-6
		c-1.4-1.4-4.1-0.4-6.2-0.4c-4.4-0.1-4.4,0-4.4,4.4c0,2.2-0.1,4.3,0,6.5c0,1.2-0.4,1.5-1.6,1.5c-6.5,0.3-6.5,0.4-6.5-6.1
		c0-7.2,0-14.3,0-21.5c0-1.6,0.3-2.1,2-2.1c6,0,6-0.1,6,6.1c0,4.6,0,4.6,4.5,4.6c2.1,0,4.8,0.7,6-0.3c1.4-1.2,0.4-4.1,0.5-6.2
		c0.1-4,0-4,4-4c4,0,4,0,4,4C371,67.1,371,70.7,371,74.3z"/>
	<path class="st1" d="M325.5,114.1c3.3-3.1,6.4-6,9.3-9c1.3-1.3,2.5-2,4.3-1.8c2.1,0.2,4.3,0,6.4,0c-3.3,3.5-6.4,7-9.8,10.2
		c-1.7,1.6-2,2.6-0.4,4.6c3.8,4.7,7.3,9.6,11.3,14.8c-3.2,0-6,0-8.8,0c-1,0-1.4-0.8-1.9-1.4c-2.1-2.7-4-5.5-6.1-8.2
		c-0.5-0.7-0.9-2.3-2-1.7c-1.1,0.6-2.4,1.5-2.3,3.2c0.1,2.2,0,4.3,0,6.5c0.1,1.3-0.4,1.7-1.7,1.7c-6.3,0.2-6.2,0.3-6.2-5.9
		c0-7.2,0-14.3,0-21.5c0-1.7,0.3-2.5,2.3-2.5c5.7,0.1,5.7,0,5.7,5.7C325.5,110.7,325.5,112.3,325.5,114.1z"/>
	<path class="st1" d="M221,133c-3.1,0-5.7-0.1-8.3,0c-1.1,0-1.7-0.4-2.2-1.2c-2.1-2.8-4.1-5.6-6.3-8.4c-0.5-0.7-0.9-2.3-2-1.7
		c-1.1,0.6-2.4,1.5-2.3,3.3c0.1,2.2,0.3,4.4,0,6.5c-0.5,3.4-3.3,1.2-4.9,1.6c-0.9,0.2-3,1.2-3-1.5c0.1-8.8,0-17.6,0-26.5
		c0-0.2-0.1-0.6,0-0.7c1.8-2.2,4.3-0.4,6.3-0.9c1.1-0.3,1.6,0.3,1.6,1.5c-0.1,3,0,6.1,0,9.1c3.1-3,6.2-5.7,9-8.7
		c1.5-1.5,2.9-2.2,5-2c2,0.2,4,0,5.9,0c-2.9,3.1-5.8,6.2-8.7,9.2c-3.2,3.3-3.2,3.2-0.5,6.9C214.1,123.8,217.4,128.2,221,133z"/>
	<path class="st1" d="M327.3,90c-7.8,0-11.7-2.8-13-8.6c-0.4-1.7,0.1-2.3,1.8-2.1c0.8,0.1,1.7,0,2.5,0c1.9-0.1,3.2-0.1,4,2.4
		c1,3.1,7.6,3.7,9.7,1.2c1.1-1.3,0.7-2.9-1.1-3.5c-2.1-0.8-4.3-1.3-6.4-2c-2-0.6-3.9-1.3-5.8-2.4c-2.7-1.6-4.3-3.9-4.3-7.1
		c0-3.4,1.5-6,4.6-7.5c5.2-2.5,10.4-2.4,15.7,0c1.2,0.6,2.2,1.5,3,2.6c1,1.5,2.1,3.2,1.4,4.8c-0.6,1.3-2.5,0.4-3.9,0.5
		c-1.8,0.2-3.3,0.3-4.3-2.1c-1-2.3-6.2-2.6-8-0.7c-1.3,1.4-0.9,2.6,0.6,3.5c2.3,1.4,5,1.9,7.4,2.8c1.4,0.5,2.8,1,4.2,1.5
		c3.3,1.3,5.1,3.7,5.1,7.3c0,3.7-1.8,6.3-5.1,7.9C332.7,89.8,329.8,90.1,327.3,90z"/>
	<path class="st1" d="M229.3,89.1c-3.3,0-6.7-0.1-10,0c-1.4,0-2.1-0.2-2-1.9c0.1-8.7,0.1-17.3,0-26c0-1.4,0.5-1.8,1.8-1.8
		c6.7,0.1,13.3,0.1,20,0c1.7,0,2.1,0.5,2.1,2.1c0,4,0,4-3.9,4c-3.2,0-6.5,0.2-9.7-0.1c-2.5-0.2-2.1,1.2-2.2,2.8
		c-0.1,1.7,0,2.8,2.3,2.7c3.3-0.2,6.7,0,10-0.1c1.6,0,2.4,0.3,2.2,2.1c-0.1,0.7-0.1,1.3,0,2c0.2,1.5-0.4,2.1-2,2
		c-3.5-0.1-7,0-10.5-0.1c-1.5,0-2,0.3-2,1.9c0,4.4-0.1,4.4,4.3,4.4c3.3,0,6.7,0.1,10,0c1.5,0,2,0.4,2,2c0,4.1,0.1,4.1-4.1,4.1
		C234.8,89.1,232.1,89.1,229.3,89.1z"/>
	<path class="st1" d="M422.3,70.3c0-3.1,0-6.2,0-9.2c0-1.2,0.4-1.5,1.6-1.6c6.3-0.3,6.3-0.4,6.3,5.8c0,4.2,0,8.3,0,12.5
		c0,4.9,4,7.4,8.4,5.1c2-1,2.2-3,2.2-5c0-5.4,0.1-10.8,0-16.2c0-1.8,0.6-2.2,2.3-2.2c5.9,0,5.9,0,5.9,5.8
		c-0.1,5.1,0.2,10.1-0.2,15.2c-0.4,4.7-3.1,7.4-7.3,8.8c-3.8,1.2-7.7,1.2-11.5-0.1c-4.5-1.5-7-4.6-7.3-9.4c-0.2-3.2,0-6.3,0-9.5
		C422.4,70.3,422.3,70.3,422.3,70.3z"/>
	<path class="st1" d="M326.5,29c0,3.1,0.1,6.2,0,9.2c-0.3,5.4-3.2,8.7-8.5,9.9c-3.2,0.7-6.4,0.7-9.6-0.1c-5.2-1.3-8.1-5.3-8.2-11.6
		c-0.1-5.5,0-11-0.1-16.5c0-1.3,0.2-1.9,1.8-1.9c6.2-0.2,6.2-0.2,6.2,5.9c0,4.2,0,8.5,0,12.7c0,3.9,1.5,5.5,5.1,5.5
		c3.9,0,5.4-1.4,5.4-5.4c0-5.6,0.1-11.2,0-16.7c0-1.5,0.4-2,2-2c6.2-0.1,6.2-0.1,6.2,6c0,1.7,0,3.3,0,5C326.6,29,326.6,29,326.5,29z
		"/>
	<path class="st1" d="M237.3,47.8c-2.7,0.8-4.4-0.5-4.8-3.7c-0.2-1.5-1.1-1.8-2.5-1.7c-1.3,0.1-2.7,0-4,0c-4.3,0-4.4,0-6,4
		c-0.4,0.9-0.8,1.4-1.8,1.3c-1.8-0.1-3.7,0-5.5,0c-1.3,0-1.4-0.6-1-1.6c3.4-9,6.9-18,10.3-27c0.3-0.8,0.7-1.3,1.6-1.2
		c0.2,0,0.5,0,0.7,0c2.2,0,4.9-0.6,6.6,0.3c1.7,1,1.8,3.9,2.6,6c2.6,6.8,5.2,13.7,7.8,20.5c1.1,2.9,1.1,2.9-2,2.9
		C238.8,47.8,238.3,47.8,237.3,47.8z"/>
	<path class="st1" d="M301.1,59.5c-3.5,9.7-7,19-10.4,28.4c-0.3,0.9-0.8,1.2-1.8,1.3c-6,0.4-6,0.4-8-5.2c-2.7-7.3-5.4-14.7-8-22
		c-0.3-0.8-0.5-1.5-0.9-2.5c2.5,0,4.9,0.1,7.2,0c1.5-0.1,1.5,0.9,1.8,1.9c1.7,6.1,3.5,12.2,5.4,19c1.6-5.5,3.1-10.4,4.6-15.3
		c1.6-5.5,1.6-5.5,7.5-5.5C299.2,59.5,299.9,59.5,301.1,59.5z"/>
	<path class="st2" d="M202.1,18.1c3.7,0,7.5,0.1,11.2,0c1.5,0,2,0.4,2,2c0,4.1,0.1,4.1-4.1,4.1c-5,0-5,0-5,4.9
		c0,5.6-0.1,11.1,0,16.7c0,1.6-0.5,2.1-2.1,2.1c-6,0.1-6,0.1-6-5.9c0-5.2,0-10.5,0-15.7c0-1.5-0.3-2.3-2-2.1
		c-1.4,0.1-2.8-0.1-4.2,0.1c-2.4,0.3-2.9-0.7-2.8-2.9c0.2-3.7-0.3-3.1,3.3-3.1C195.6,18,198.9,18.1,202.1,18.1z"/>
	<path class="st2" d="M285.5,18.1c3.6,0,7.2,0.1,10.7,0c1.6,0,2.4,0.3,2.1,2c0,0.1,0,0.2,0,0.2c0,3.7,0,3.7-3.6,3.7
		c-5.4,0-5.4,0-5.4,5.5c0,5.4,0,10.8,0,16.2c0,1.4-0.3,2-1.9,2.1c-6.2,0.2-6.2,0.2-6.2-6c0-5.2-0.1-10.5,0-15.7
		c0-1.7-0.5-2.2-2.1-2.1c-1.7,0.1-3.5,0-5.2,0.1c-1.3,0.1-1.7-0.4-1.7-1.7c-0.1-4.3-0.2-4.3,4.1-4.3
		C279.3,18.1,282.4,18.1,285.5,18.1z"/>
	<path class="st2" d="M202.3,59.5c3.7,0,7.3,0.1,11,0c1.7-0.1,2.3,0.5,2.1,2.1c-0.1,0.5-0.1,1,0,1.5c0.3,1.9-0.4,2.6-2.4,2.5
		c-2.1-0.1-5-1-6.2,0.4c-1,1.2-0.4,4-0.4,6c0,5,0,10,0,15c0,1.5-0.2,2.2-2,2.2c-6.2,0-6.2,0.1-6.2-6c0-5.2,0-10.5,0-15.7
		c0-1.5-0.3-2.1-1.9-2c-1.3,0.1-2.7,0.1-4,0c-1-0.1-2.6,0.6-2.9-0.5c-0.4-1.5-0.3-3.3-0.1-4.9c0.1-0.8,1.1-0.5,1.7-0.5
		C194.8,59.5,198.5,59.5,202.3,59.5z"/>
	<path class="st1" d="M413.4,118.2c0-4.2,0-8.5,0-12.7c0-1.5,0.2-2.2,2-2.2c6.1,0,6.1-0.1,6.1,6c0,5.1,0.1,10.2,0,15.2
		c0,1.5,0.3,2,1.9,2c3.7-0.1,7.5,0,11.2-0.1c1.7-0.1,2.1,0.5,2.1,2.1c0,4.4,0.1,4.4-4.5,4.4c-5.7,0-11.3,0-17,0
		c-1.4,0-1.9-0.4-1.8-1.8C413.5,126.9,413.4,122.6,413.4,118.2z"/>
	<path class="st1" d="M310.9,74.3c0,4.3-0.1,8.7,0,13c0,1.4-0.5,1.8-1.9,1.8c-6.3,0.2-6.3,0.2-6.3-5.9c0-7.2,0-14.5,0-21.7
		c0-1.6,0.5-2.1,2.1-2.1c6,0,6-0.1,6,5.9C310.9,68.3,310.9,71.3,310.9,74.3z"/>
	<path class="st1" d="M409.5,74.2c0-4.2,0.1-8.5,0-12.7c0-1.4,0.2-2,1.9-2c6.2-0.1,6.2-0.1,6.2,6.1c0,7.1,0,14.1,0,21.2
		c0,1.7-0.2,2.5-2.2,2.4c-5.8-0.1-5.8,0-5.8-5.8C409.5,80.3,409.5,77.2,409.5,74.2z"/>
	<path class="st2" d="M240.4,160.4c-0.8,0-1.2-0.1-1.6,0c-2.5,0.4-3.7-0.5-3.6-3.1c0.1-1.3,0-2.7-1.8-3.1c-2.9-0.7-3.6-0.3-3.5,2.6
		c0,2,0.4,3.9-2.8,3.5c-1.5-0.2-2.2-0.3-2.2-2.1c0.1-4.2,0.1-8.5,0-12.7c0-1.3,0.3-1.8,1.7-1.7c2.8,0.1,5.7,0.1,8.5,0.1
		c2.1,0,3.8,0.8,4.6,2.8c0.7,1.9,0.3,3.6-1.3,5c-0.3,0.3-0.9,0.8-0.6,0.9c2.7,1.6,1.1,4.5,2.1,6.6
		C240.1,159.6,240.2,159.9,240.4,160.4z"/>
	<path class="st2" d="M307.8,176.9c-0.2,5.5-3.7,8.8-9.1,8.6c-5.3-0.2-8.6-3.9-8.5-9.3c0.2-5,3.9-8.4,9-8.2
		C304.6,168.2,307.9,171.6,307.8,176.9z"/>
	<path class="st1" d="M241.8,177.2c3.1,1.9,1.3,5.2,2.7,7.7c-0.9,0-1.5,0-2.2,0.1c-2.2,0.4-3-0.6-2.9-2.7c0-1.6,0.1-3.2-2.2-3.5
		c-3-0.4-3.3-0.2-3.3,2.8c0,1.9,0.5,3.9-2.7,3.4c-1.5-0.2-1.9-0.6-1.9-2c0.1-4.2,0.1-8.5,0-12.7c0-1.4,0.3-1.9,1.8-1.8
		c2.5,0.1,5,0,7.5,0.1c2.3,0,4.6,0.5,5.4,3C244.9,173.9,243.9,175.7,241.8,177.2z"/>
	<path class="st1" d="M374.6,180.5c0,1,0,2,0,3c0,0.5,0.3,1.3-0.5,1.4c-0.7,0.1-1.8,0.4-2.1-0.3c-0.6-1.9-1.4-0.6-2.1-0.2
		c-4.1,2.5-9.8,0.5-11.4-4c-1.2-3.4-1.1-6.8,1.5-9.6c2.6-2.9,6-3.3,9.6-2.5c1.3,0.3,2.3,0.9,3.2,1.9c0.7,0.9,2.3,2.3,1.3,3
		c-1,0.7-3.1,1-4.3-0.4c-1.6-1.7-3.4-2-5.3-0.8c-1.9,1.3-2.6,4.9-1.5,7.3c1,2.2,2.7,2.9,4.9,2.5c0.6-0.1,1.3-0.4,1.8-0.9
		c0.4-0.3,0.9-1,0.8-1.4c-0.1-0.8-0.9-0.5-1.4-0.5c-1.2,0-2.3,0.2-2.3-1.7c0-2,1.4-1.4,2.4-1.5c0.3,0,0.7,0,1,0
		C374.6,176,374.6,176,374.6,180.5z"/>
	<path class="st3" d="M285.4,152.1c0-2.2,0.1-4.5,0-6.7c-0.1-1.8,1-1.6,2.1-1.5c1,0.1,2.6-0.6,2.4,1.4c0,0.4,0.1,0.8,0,1.2
		c-0.4,2.5,0.4,3.4,3,3.1c3-0.3,3.2-0.1,3.1-3.8c-0.1-2,0.9-2.1,2.4-2.1c1.5,0,2.2,0.2,2.2,2c-0.1,4.3-0.1,8.7,0,13
		c0.1,1.9-1.1,1.7-2.2,1.7c-1.1,0-2.5,0.4-2.3-1.6c0.1-1-0.1-2,0-3c0.3-2-0.5-2.5-2.4-2.4c-3.7,0.1-3.7,0-3.7,3.9
		c0,1.8,0.4,3.5-2.5,3.2c-1.7-0.2-2.1-0.6-2-2.2C285.5,156.3,285.4,154.2,285.4,152.1z"/>
	<path class="st1" d="M368.9,152c0-2.2,0.1-4.3,0-6.5c-0.1-1.9,1-1.7,2.2-1.7c1.2,0,2.7-0.3,2.4,1.8c-0.1,0.3,0.1,0.7,0,1
		c-0.5,2.7,0.7,3,3.1,3.1c2.6,0.1,3.5-0.7,3-3.2c-0.3-1.9,0.1-2.8,2.4-2.8c2.6,0,2.1,1.5,2.1,2.9c0,4-0.1,8,0.1,12
		c0.1,2-1,1.9-2.3,1.9c-1.3,0-2.6,0.1-2.3-1.9c0.1-0.7-0.1-1.3,0-2c0.4-2.4-0.3-3.2-3-3.2c-2.6,0-3.4,0.7-3.3,3.3
		c0.1,1.2,1.6,3.7-1.7,3.8c-2.2,0.1-3-0.5-2.7-2.7C369.1,155.9,368.9,153.9,368.9,152z"/>
	<path class="st2" d="M378.5,176.6c0-2.2,0.1-4.3,0-6.5c0-1.2,0.2-1.8,1.6-1.7c3.4,0.1,6.8,0.1,10.2,0c1.2,0,1.6,0.3,1.6,1.5
		c0,1.1-0.1,2-1.6,1.9c-2-0.1-4,0-6,0c-1.1,0-1.4,0.4-1.4,1.5c0,1.1,0.4,1.5,1.5,1.4c1.7,0,3.3,0.1,5,0c1.4-0.1,1.6,0.5,1.7,1.8
		c0,1.4-0.5,1.7-1.8,1.6c-1.5-0.1-3,0.1-4.5,0c-1.4-0.1-1.9,0.3-1.9,1.8c0,1.4,0.4,1.9,1.8,1.8c1.8-0.1,3.7,0.1,5.5,0
		c1.4-0.1,1.9,0.4,1.9,1.8c0,1.4-0.5,1.6-1.8,1.6c-3.4-0.1-6.8-0.1-10.2,0c-1.3,0-1.8-0.3-1.7-1.7
		C378.6,181.1,378.5,178.9,378.5,176.6z"/>
	<path class="st2" d="M254.2,185c-1.7-0.2-4.5,0.9-5.9-0.4c-1.3-1.3-0.3-4.1-0.4-6.2c-0.1-2.7,0-5.5,0-8.2c0-1.2,0.3-1.8,1.6-1.7
		c3.4,0.1,6.8,0.1,10.2,0c1.3,0,1.5,0.6,1.4,1.7c0,1-0.1,1.8-1.4,1.8c-1.9-0.1-3.8,0-5.7,0c-1.1,0-1.7,0.2-1.7,1.5
		c0,1.4,0.8,1.4,1.8,1.4c1.5,0,3,0.1,4.5,0c1.3-0.1,1.9,0.3,1.9,1.8c0,1.4-0.6,1.7-1.8,1.6c-1.5-0.1-3,0.1-4.5,0
		c-1.4-0.1-1.9,0.4-1.9,1.8c0,1.5,0.6,1.8,1.9,1.8c1.7-0.1,3.5,0,5.2,0c1.4-0.1,2.1,0.2,2.1,1.8c0,1.7-0.9,1.6-2,1.6
		C257.9,185,256.2,185,254.2,185z"/>
	<path class="st2" d="M341.9,176.6c0-2.2,0-4.5,0-6.7c0-1.1,0.3-1.5,1.4-1.4c3.5,0.1,7,0.1,10.5,0c1.4,0,1.4,0.7,1.4,1.7
		c0,1-0.2,1.8-1.5,1.7c-1.6-0.1-3.2-0.1-4.7,0c-1,0.1-2.7-0.8-2.6,1.5c0.1,2.3,1.7,1.2,2.7,1.3c1.1,0.2,2.3,0.1,3.5,0
		c1.4-0.1,1.9,0.3,1.9,1.8c0,1.4-0.6,1.6-1.8,1.6c-1.5-0.1-3,0.1-4.5,0c-1.4-0.1-1.8,0.4-1.9,1.8c0,1.5,0.5,1.8,1.9,1.8
		c1.9-0.1,3.8,0.1,5.7,0c1.5-0.1,1.5,0.8,1.5,1.9c0,1.2-0.3,1.6-1.5,1.6c-3.6-0.1-7.1-0.1-10.7,0c-1.1,0-1.4-0.4-1.4-1.5
		C342,181.2,341.9,178.9,341.9,176.6z"/>
	<path class="st2" d="M258.9,150c0-1.2,0.1-2.3,0-3.5c-0.3-2.2,0.5-2.9,2.7-2.7c1.5,0.1,2,0.4,2,2c-0.1,2.8,0,5.6,0,8.5
		c0,2.1,1,3.1,3,3.1c2,0,2.8-1.2,2.8-3.1c0-3,0.1-6,0-9c0-1.6,0.9-1.6,1.9-1.4c1,0.1,2.6-0.7,2.6,1.3c0,3.5,0.3,7-0.2,10.4
		c-0.5,3.7-3.4,5.6-7.7,5.4c-4.3-0.2-6.7-2.3-6.9-6C258.9,153.3,259,151.6,258.9,150C258.9,150,258.9,150,258.9,150z"/>
	<path class="st1" d="M310.8,160.5c-1.8-0.2-4.5,0.9-5.9-0.4c-1.3-1.3-0.4-4.1-0.4-6.2c-0.1-2.7,0-5.5,0-8.2c0-1.3,0.2-2,1.7-1.9
		c3.3,0.1,6.6,0.1,10,0c1.3,0,1.7,0.4,1.7,1.7c0,1.4-0.6,1.7-1.8,1.6c-1.9-0.1-3.8,0.1-5.7,0c-1.4-0.1-1.4,0.7-1.4,1.7
		c0,1.1,0.4,1.5,1.4,1.4c1.7-0.1,3.5,0.1,5.2,0c1.4-0.1,1.4,0.7,1.4,1.7c0,1.1-0.2,1.7-1.5,1.6c-1.6-0.1-3.2,0.1-4.7,0
		c-1.3-0.1-1.9,0.3-1.9,1.8c0,1.4,0.4,1.9,1.8,1.8c1.6-0.1,3.2-0.1,4.7,0c1.2,0,2.7-0.5,2.7,1.8c0,2.2-1.4,1.5-2.5,1.6
		C314.1,160.6,312.6,160.5,310.8,160.5z"/>
	<path class="st2" d="M337.5,160.4c-1.5,0-2.5,0-3.6,0c-0.7,0-1.2-0.1-1.5-0.9c-0.3-0.8-0.2-2-1.4-2.1c-1.7-0.1-3.3-0.1-5,0.1
		c-0.7,0.1-0.7,1.1-0.8,1.7c-0.3,1.1-0.9,1.2-1.8,1.2c-3.3,0.1-3.3,0.2-2.1-2.9c1.5-4.1,3.2-8.2,4.6-12.4c0.5-1.5,1.5-1.4,2.5-1.3
		c1.2,0.2,2.7-0.8,3.4,1.1C333.6,150,335.5,155.1,337.5,160.4z"/>
	<path class="st1" d="M227.2,184.9c-2.5,0-5,1-5.8-2.5c-0.2-0.9-5.9-0.8-6.1,0.2c-0.6,3.5-3.2,2.1-5.4,2.3c2-5.3,3.8-10.5,5.8-15.6
		c0.7-1.8,2.5-0.7,3.7-0.9c1-0.2,1.7,0.1,2.1,1.2C223.3,174.7,225.2,179.6,227.2,184.9z"/>
	<path class="st2" d="M205.4,160.4c2-5.3,3.9-10.4,5.7-15.5c0.5-1.3,1.6-1.1,2.5-1c1.1,0.1,2.6-0.7,3.3,0.9
		c1.9,5.1,3.8,10.2,5.8,15.6c-2.5,0-5,1.1-5.7-2.4c-0.2-1-5.9-0.9-6.1,0C210.2,161.5,207.7,160.3,205.4,160.4z"/>
	<path class="st2" d="M271.7,176.8c0.1-6.8,6.4-10.8,12.6-8.1c0.9,0.4,1.7,1,2.3,1.8c0.7,0.9,1.9,2.4,1,3c-1.1,0.7-2.9,1-4.2-0.5
		c-1.5-1.7-3.7-2.1-5.3-1c-1.8,1.2-2.5,4.8-1.4,7.3c0.9,2.1,2.5,2.7,4.7,2.3c1-0.2,1.7-0.7,2.1-1.6c0.3-0.5,0.5-1.1,1.2-1
		c1,0.1,2.5-0.5,3.1,0.3c0.6,0.9-0.3,2-0.9,2.9c-2,2.9-6.2,4-10.1,2.7C273.7,183.9,271.7,180.5,271.7,176.8z"/>
	<path class="st2" d="M201.4,168c2.4,0.1,4.6,0.6,6.2,2.7c0.6,0.9,1.7,2.2,0.8,2.8c-1,0.7-2.9,1-4-0.4c-1.4-1.8-3.2-2.1-5.1-1.3
		c-1.7,0.7-2.7,3.5-2.2,6.2c0.4,1.9,1.2,3.5,3.4,3.7c1.5,0.2,2.8-0.2,3.7-1.5c0.3-0.5,0.4-1.3,1.4-1.2c1,0.2,2.4-0.6,3,0.5
		c0.5,1-0.3,2-1,2.9c-1.9,2.7-4.7,3.2-7.7,3c-3.4-0.3-5.7-2.1-6.8-5.3C190.7,173.9,195,167.8,201.4,168z"/>
	<path class="st4" d="M199.2,143.8c1.8,0,3.7,0.1,5.5,0c1.3-0.1,1.7,0.5,1.7,1.8c0,1.2-0.4,1.6-1.6,1.6c-3.4,0.2-3.4,0.2-3.4,3.7
		c0,2.5-0.2,5,0,7.5c0.2,2.2-1.1,2-2.6,2.1c-1.8,0.1-2.3-0.5-2.2-2.2c0.1-2.7-0.1-5.3,0.1-8c0.2-2.4-0.3-3.7-3-3.2
		c-1,0.2-2,0.2-2-1.4c0-1.3,0.3-2,1.8-1.9C195.3,143.9,197.2,143.8,199.2,143.8z"/>
	<path class="st1" d="M359.3,143.8c1.8,0,3.7,0,5.5,0c1.2,0,1.8,0.2,1.8,1.6c0,1.5-0.6,2-1.9,1.7c-2.7-0.5-3.4,0.7-3.2,3.3
		c0.2,2.4,0,4.8,0.1,7.2c0,1.6,0.3,3-2.2,2.9c-2.4,0-2.5-1-2.4-2.8c0.1-2.4-0.2-4.8,0.1-7.2c0.3-2.6-0.4-3.9-3.3-3.4
		c-1.4,0.3-1.8-0.5-1.8-1.8c0-1.3,0.5-1.5,1.6-1.5C355.5,143.9,357.4,143.8,359.3,143.8z"/>
	<path class="st2" d="M249.5,143.8c1.9,0,3.8,0.1,5.7,0c1.3-0.1,1.5,0.6,1.5,1.7c0,1.1-0.2,1.6-1.5,1.7c-3.5,0.2-3.5,0.3-3.5,3.9
		c0,2.6-0.1,5.2,0,7.7c0.1,2.1-1.4,1.6-2.5,1.6c-1.2,0.1-2.3,0.2-2.2-1.7c0.1-3.1-0.1-6.2,0.1-9.2c0.1-2-0.5-2.6-2.5-2.5
		c-1.1,0.1-2.6,0.6-2.6-1.6c0-1.3,0.4-1.8,1.7-1.7C245.7,143.9,247.6,143.8,249.5,143.8z"/>
	<path class="st2" d="M339.9,152c0-2.1,0.1-4.2,0-6.2c-0.2-1.8,0.8-2,2.2-2c1.5,0,2.5,0.1,2.4,2.1c-0.2,3.1,0,6.1-0.1,9.2
		c0,1.4,0.4,1.9,1.8,1.8c1.6-0.1,3.2,0.1,4.7,0c1.4-0.1,2.1,0.2,2,1.9c0,1.6-0.7,1.7-2,1.7c-3.1-0.1-6.2-0.1-9.2,0
		c-1.6,0.1-2-0.6-1.9-2C340,156.3,339.9,154.1,339.9,152z"/>
	<path class="st2" d="M311.1,176.8c0-2.1,0.1-4.2,0-6.2c-0.1-1.8,0.6-2.2,2.3-2.2c1.6,0,2.4,0.2,2.3,2.1c-0.2,3.1,0,6.1-0.1,9.2
		c0,1.4,0.5,1.9,1.9,1.8c1.6-0.1,3.2,0.1,4.7,0c1.5-0.1,2.1,0.3,2,1.9c0,1.6-0.7,1.7-2,1.7c-3.1-0.1-6.2-0.1-9.2,0
		c-1.6,0.1-2-0.5-1.9-2C311.2,181,311.1,178.9,311.1,176.8z"/>
	<path class="st1" d="M326.5,176.7c0-2.2,0.1-4.5,0-6.7c-0.1-2,1.3-1.5,2.3-1.5c1.1,0,2.3-0.4,2.2,1.6c-0.1,3.1,0.1,6.3-0.1,9.5
		c-0.1,1.7,0.5,2.2,2.1,2c1.5-0.1,3,0,4.5,0c1.4-0.1,2,0.2,2.1,1.8c0,1.8-0.9,1.7-2.2,1.7c-2.9,0-5.8-0.2-8.7,0
		c-2,0.1-2.4-0.6-2.2-2.4C326.6,180.7,326.5,178.7,326.5,176.7z"/>
	<path class="st5" d="M236.7,99.2c-0.8-0.2-1.6-0.4-2.4-0.5c-1.4-0.2-2.9-0.7-4.1,0.9c-0.5,0.7-1.5,0.6-2.1,0.2
		c-0.7-0.5-0.1-1.2,0.1-1.8c1.1-2.6,3.2-3.6,6.1-2.8c1.9,0.5,3.8,1.4,5.4-0.8c0.3-0.5,1.3-0.4,1.9,0c0.7,0.5,0,1.1-0.2,1.5
		C240.7,98.1,239.2,99.4,236.7,99.2z"/>
	<path class="st6" d="M124.6,134.6c0.9,0.8,2,0.1,3,0.5c-1,0.5-2.2,0.4-3.3,0.5c-0.3,0-0.8,0-0.7-0.4
		C123.7,134.9,124.2,134.8,124.6,134.6z"/>
	<path class="st7" d="M266.4,116.1c-4.3-0.1-4.1-0.1-4.3-4.4c-0.1-2.3,0.7-2.9,2.8-2.7c1.7,0.2,3.5,0.2,5.2,0.3
		c1.7,0.2,2.7,1.2,2.8,2.9c0.1,1.8-0.8,3.1-2.6,3.5C269,116.1,267.7,116,266.4,116.1z"/>
	<path class="st7" d="M257,72.1c-4-0.1-3.8-0.1-4-4.2c-0.1-2.3,0.6-3.1,2.9-2.8c1.7,0.2,3.5,0,5.2,0.3c1.7,0.3,2.7,1.3,2.7,3
		c0,1.8-0.9,3.1-2.6,3.4C259.9,72.1,258.4,72,257,72.1z"/>
	<path class="st8" d="M256.3,24c1.2,0,2.3-0.1,3.5,0c1.8,0.2,3,1.1,3,3c0,1.9-0.9,3.1-2.8,3.5c-2.2,0.4-4.5,0.2-6.7,0.3
		c-1,0-1.3-0.5-1.2-1.4c0-0.4,0-0.8,0-1.2C252,24,252,24,256.3,24z"/>
	<path class="st0" d="M401.9,117.4c0.1,7.1-3.2,10.6-8.6,10.1c-0.1,0-0.2,0-0.2,0c-3-0.5-5.1-2.2-5.8-5.1c-1-4.2-1.3-8.5,2.2-11.9
		c2.4-2.2,5.4-2.2,8.2-0.9C401.3,111.3,401.8,114.7,401.9,117.4z"/>
	<path class="st0" d="M368.4,117.5c0.1,7-3.2,10.5-8.6,10c-0.1,0-0.2,0-0.2,0c-3-0.5-5.1-2.2-5.8-5.1c-1-4.2-1.3-8.5,2.2-11.9
		c2.4-2.2,5.4-2.2,8.2-0.9C367.8,111.3,368.3,114.7,368.4,117.5z"/>
	<path class="st0" d="M397.9,73.7c0,6.6-2.9,10.1-8,9.9c-3.1-0.1-5.6-1.8-6.6-4.8c-0.8-2.6-1-5.2-0.4-7.8c1.1-4.2,3.6-6.1,7.7-6
		c3.9,0.2,6.2,2.3,7,6.5C397.8,72.4,397.9,73.4,397.9,73.7z"/>
	<path class="st0" d="M242.7,118.3c0.1,6.2-3.2,9.8-8.6,9.3c-3.1-0.3-5.2-2.1-5.9-4.9c-1.2-4.3-1.4-8.7,2.2-12.1
		c2.3-2.2,5.4-2.2,8.2-0.9C242.1,111.3,242.7,114.7,242.7,118.3z"/>
	<path class="st9" d="M226.5,26c1.2,3.5,2.2,6.3,3.1,9.1c0.1,0.2,0.2,0.4,0.1,0.5c-1.5,1.4-3.4,0.4-5,0.7c-0.9,0.2-1.4-0.3-1.1-1.3
		C224.5,32.2,225.3,29.4,226.5,26z"/>
	<path class="st10" d="M232.3,151c-1.4,0-2.9,0.4-2.7-1.8c0.1-1.6,0.5-2.3,2.1-2.1c1.5,0.3,3.7-0.5,3.8,2
		C235.5,151.3,233.6,150.9,232.3,151z"/>
	<path class="st8" d="M294.9,176.7c0-3.3,1.4-5.1,4-5.2c2.7-0.1,4.4,1.9,4.4,5.2c0,3.2-1.6,5.1-4.1,5.2
		C296.5,182,294.9,180.1,294.9,176.7z"/>
	<path class="st11" d="M236.7,175.5c-1.5,0-2.9,0.5-2.8-1.8c0.1-1.6,0.5-2.3,2.1-2.1c1.5,0.3,3.8-0.5,3.8,2
		C239.9,175.7,238,175.4,236.7,175.5z"/>
	<path class="st12" d="M328.8,148.6c0.4,1.2,0.8,2.2,1.2,3.2c0.8,2.3,0.6,2.4-1.8,2.2c-1.1-0.1-1.3-0.4-0.9-1.3
		c0.4-0.9,0.6-1.9,0.9-2.8C328.3,149.5,328.5,149.1,328.8,148.6z"/>
	<path class="st11" d="M220.3,178.3c-1.3,0.5-2.4,0.2-3.7,0.2c0.6-1.7,1.1-3.3,1.6-5C219.4,174.9,219.6,176.7,220.3,178.3z"/>
	<path class="st13" d="M215.7,153.8c-1.2,0.3-2.3,0.2-3.6,0c0.5-1.7,1.1-3.3,1.6-5.1C214.9,150.3,215.2,152,215.7,153.8z"/>
</g>
</svg>
